<?xml version="1.0" encoding="utf-8"?><!-- Generated by IcoMoon.io --><!DOCTYPE svg PUBLIC "-//W3C//DTD SVG 1.1//EN" "http://www.w3.org/Graphics/SVG/1.1/DTD/svg11.dtd"><svg version="1.1" xmlns="http://www.w3.org/2000/svg" xmlns:xlink="http://www.w3.org/1999/xlink" width="24" height="24" viewBox="0 0 24 24" data-tags="barbell,dumbbell,dumbell,fitness,gym,physical,weight,weightlifting,weights"><g fill="#444" transform="scale(0.0234375 0.0234375)"><path d="M928.725 384c-23.467 0-32.725 38.4-32.725 85.333v85.333c0 46.933 9.259 85.333 32.725 85.333s32.725-38.4 32.725-85.333h62.549v-85.333h-62.592c0-46.933-9.259-85.333-32.683-85.333zM768 256c-42.667 0-42.667 38.4-42.667 85.333v128h-426.667v-128c0-46.933 0-85.333-42.667-85.333-46.933 0-85.333 38.4-85.333 85.333v341.333c0 46.933 38.4 85.333 85.333 85.333 42.667 0 42.667-38.4 42.667-85.333v-128h426.667v128c0 46.933 0 85.333 42.667 85.333 46.933 0 85.333-38.4 85.333-85.333v-341.333c0-46.933-38.4-85.333-85.333-85.333zM95.275 384c23.467 0 32.725 38.4 32.725 85.333v85.333c0 46.933-9.259 85.333-32.725 85.333s-32.725-38.4-32.725-85.333h-62.549v-85.333h62.592c0-46.933 9.259-85.333 32.683-85.333z" /></g></svg>