<?xml version="1.0" encoding="utf-8"?>
<!-- Generated by IcoMoon.io -->
<!DOCTYPE svg PUBLIC "-//W3C//DTD SVG 1.1//EN" "http://www.w3.org/Graphics/SVG/1.1/DTD/svg11.dtd">
<svg version="1.1" xmlns="http://www.w3.org/2000/svg" xmlns:xlink="http://www.w3.org/1999/xlink" width="768" height="768" viewBox="0 0 768 768"><g id="icomoon-ignore">
</g>
<path d="M696.544 288c-17.6 0-24.544 28.8-24.544 64v64c0 35.2 6.944 64 24.544 64s24.544-28.8 24.544-64h46.912v-64h-46.944c0-35.2-6.944-64-24.512-64zM576 192c-32 0-32 28.8-32 64v96h-320v-96c0-35.2 0-64-32-64-35.2 0-64 28.8-64 64v256c0 35.2 28.8 64 64 64 32 0 32-28.8 32-64v-96h320v96c0 35.2 0 64 32 64 35.2 0 64-28.8 64-64v-256c0-35.2-28.8-64-64-64zM71.456 288c17.6 0 24.544 28.8 24.544 64v64c0 35.2-6.944 64-24.544 64s-24.544-28.8-24.544-64h-46.912v-64h46.944c0-35.2 6.944-64 24.512-64z"></path>
</svg>
